<?xml version="1.0" standalone="no"?>
<!DOCTYPE svg PUBLIC "-//W3C//DTD SVG 20010904//EN"
 "http://www.w3.org/TR/2001/REC-SVG-20010904/DTD/svg10.dtd">
<svg version="1.0" xmlns="http://www.w3.org/2000/svg"
 width="1642.000000pt" height="1616.000000pt" viewBox="0 0 1642.000000 1616.000000"
 preserveAspectRatio="xMidYMid meet">
<metadata>
Created by potrace 1.16, written by Peter Selinger 2001-2019
</metadata>
<g transform="translate(0.000000,1616.000000) scale(0.100000,-0.100000)"
fill="#000000" stroke="none">
<path d="M7827 14372 l-326 -567 329 -3 c182 -1 478 -1 658 0 l328 3 -322 559
c-178 308 -327 563 -331 567 -5 5 -156 -247 -336 -559z"/>
<path d="M3919 10948 c-777 -1344 -1413 -2452 -1413 -2463 0 -11 636 -1116
1412 -2455 l1411 -2435 2838 -2 2838 -2 1395 2411 c767 1325 1405 2427 1417
2447 l22 38 -1418 2449 -1418 2449 -2835 3 -2835 2 -1414 -2442z m3911 1040
l0 -723 -112 111 c-62 61 -302 294 -533 519 -231 225 -513 500 -626 612 l-206
203 739 0 738 0 0 -722z m2140 718 c0 -4 -1395 -1372 -1443 -1415 l-27 -24 0
721 0 722 735 0 c404 0 735 -2 735 -4z m-3336 -1221 c564 -555 1026 -1012
1026 -1015 0 -3 -344 -349 -764 -769 l-765 -765 -348 341 c-191 187 -566 552
-833 812 -267 260 -485 478 -484 485 2 19 1128 1926 1136 1924 4 -2 468 -457
1032 -1013z m4657 55 c303 -525 551 -957 552 -961 1 -4 -378 -365 -843 -803
l-845 -796 -748 748 -748 747 358 351 c197 193 662 648 1033 1012 371 364 678
660 682 659 4 -1 256 -432 559 -957z m1237 -2105 c193 -321 355 -591 358 -599
6 -14 -85 -16 -946 -16 l-953 0 59 63 c119 126 1118 1137 1123 1137 3 -1 165
-264 359 -585z m-3603 -1676 c-410 -409 -750 -745 -755 -747 -9 -3 -1520 1465
-1520 1476 0 4 341 348 757 764 l758 758 753 -753 753 -753 -746 -745z m-4141
1551 l499 -485 -903 -3 c-497 -1 -905 0 -907 2 -4 4 618 1085 640 1114 11 15
-38 60 671 -628z m98 -1567 c-598 -609 -740 -749 -751 -738 -7 9 -619 1064
-650 1123 l-12 22 907 0 906 0 -400 -407z m7978 403 c0 -4 -641 -1113 -667
-1155 -15 -23 -16 -23 -247 205 -127 126 -396 392 -598 592 l-367 362 940 0
c516 0 939 -2 939 -4z m-5951 -901 l772 -749 -63 -62 c-454 -444 -1977 -1924
-1997 -1940 l-26 -21 -550 950 c-302 522 -551 955 -553 961 -1 6 228 237 510
512 282 276 650 637 818 802 168 166 308 300 311 299 4 -1 354 -339 778 -752z
m4095 -64 c455 -448 825 -817 824 -821 -13 -32 -1094 -1889 -1099 -1888 -12 6
-2069 2009 -2069 2016 0 10 1504 1512 1511 1510 4 -2 379 -369 833 -817z
m-3177 -2918 c-2 -2 -336 -2 -742 -1 l-739 3 740 715 739 715 3 -714 c1 -393
1 -716 -1 -718z m1253 873 c300 -291 624 -608 721 -703 l176 -173 -738 0 -739
0 0 716 c0 680 1 716 17 703 10 -8 263 -252 563 -543z"/>
<path d="M7881 8776 l-284 -285 277 -283 c153 -156 283 -284 289 -286 7 -1
139 125 294 280 l283 283 -288 288 -287 287 -284 -284z"/>
<path d="M2704 11540 l-260 -5 328 -560 c180 -308 331 -561 336 -563 6 -2 637
1094 650 1129 4 9 -575 9 -1054 -1z"/>
<path d="M12847 11540 l-258 -5 332 -565 c182 -311 332 -566 333 -567 1 -2
292 506 624 1089 l33 58 -403 -2 c-222 -1 -519 -5 -661 -8z"/>
<path d="M13024 6234 c-176 -312 -320 -571 -322 -575 -4 -10 416 -10 964 0
l352 6 -332 563 c-183 309 -335 564 -338 567 -3 3 -149 -249 -324 -561z"/>
<path d="M2732 6028 c-182 -309 -330 -563 -328 -565 4 -5 1300 -21 1308 -17 7
5 -632 1144 -642 1144 -3 0 -155 -253 -338 -562z"/>
<path d="M7532 3102 c281 -494 624 -1079 630 -1074 3 4 138 234 298 512 161
278 307 531 326 563 l33 57 -660 0 -660 0 33 -58z"/>
</g>
</svg>
